<mxfile host="app.diagrams.net" agent="Mozilla/5.0 (Macintosh; Intel Mac OS X 10_15_7) AppleWebKit/537.36 (KHTML, like Gecko) Chrome/134.0.0.0 Safari/537.36" version="26.1.1">
  <diagram name="Page-1" id="-23FzTlW1bILZROTfVZp">
    <mxGraphModel dx="2171" dy="1100" grid="1" gridSize="10" guides="1" tooltips="1" connect="1" arrows="1" fold="1" page="1" pageScale="1" pageWidth="827" pageHeight="1169" math="0" shadow="0">
      <root>
        <mxCell id="0" />
        <mxCell id="1" parent="0" />
        <mxCell id="0ykhE9CogiX0X-Ff6Mlb-2" value="" style="endArrow=classic;html=1;rounded=0;exitX=1;exitY=0.5;exitDx=0;exitDy=0;exitPerimeter=0;entryX=0;entryY=0.5;entryDx=0;entryDy=0;" edge="1" parent="1" target="0ykhE9CogiX0X-Ff6Mlb-4">
          <mxGeometry width="50" height="50" relative="1" as="geometry">
            <mxPoint x="130" y="160" as="sourcePoint" />
            <mxPoint x="190" y="160" as="targetPoint" />
          </mxGeometry>
        </mxCell>
        <mxCell id="0ykhE9CogiX0X-Ff6Mlb-4" value="&lt;p style=&quot;margin: 0px 0px 24px; font-variant-numeric: normal; font-variant-east-asian: normal; font-variant-alternates: normal; font-size-adjust: none; font-kerning: auto; font-optical-sizing: auto; font-feature-settings: normal; font-variation-settings: normal; font-variant-position: normal; font-variant-emoji: normal; font-stretch: normal; line-height: normal; font-family: Graphik; text-align: start;&quot; class=&quot;p1&quot;&gt;&lt;/p&gt;&lt;ul&gt;&lt;li&gt;&lt;p style=&quot;margin: 0px; font-variant-numeric: normal; font-variant-east-asian: normal; font-variant-alternates: normal; font-size-adjust: none; font-kerning: auto; font-optical-sizing: auto; font-feature-settings: normal; font-variation-settings: normal; font-variant-position: normal; font-variant-emoji: normal; font-stretch: normal; line-height: normal; font-family: &amp;quot;Helvetica Neue&amp;quot;; text-align: start; font-size: 13px;&quot; class=&quot;p1&quot;&gt;&amp;nbsp;Public Medical Data (e.g., MIMIC, MedQuAD, CHIS, OpenFDA)&lt;/p&gt;&lt;p style=&quot;margin: 0px; font-variant-numeric: normal; font-variant-east-asian: normal; font-variant-alternates: normal; font-size-adjust: none; font-kerning: auto; font-optical-sizing: auto; font-feature-settings: normal; font-variation-settings: normal; font-variant-position: normal; font-variant-emoji: normal; font-stretch: normal; line-height: normal; font-family: &amp;quot;Helvetica Neue&amp;quot;; text-align: start; font-size: 13px;&quot; class=&quot;p1&quot;&gt;&lt;span class=&quot;Apple-converted-space&quot;&gt;&amp;nbsp;&amp;nbsp;&lt;/span&gt;&lt;/p&gt;&lt;/li&gt;&lt;li&gt;&lt;p style=&quot;margin: 0px; font-variant-numeric: normal; font-variant-east-asian: normal; font-variant-alternates: normal; font-size-adjust: none; font-kerning: auto; font-optical-sizing: auto; font-feature-settings: normal; font-variation-settings: normal; font-variant-position: normal; font-variant-emoji: normal; font-stretch: normal; line-height: normal; font-family: &amp;quot;Helvetica Neue&amp;quot;; text-align: start; font-size: 13px;&quot; class=&quot;p1&quot;&gt;&lt;span class=&quot;Apple-converted-space&quot;&gt;&amp;nbsp;&lt;/span&gt;Synthetic Parallel Data (e.g., GPT-generated)&lt;/p&gt;&lt;/li&gt;&lt;/ul&gt;&lt;p&gt;&lt;/p&gt;" style="shape=process;whiteSpace=wrap;html=1;backgroundOutline=1;" vertex="1" parent="1">
          <mxGeometry x="240" y="115" width="540" height="90" as="geometry" />
        </mxCell>
        <mxCell id="0ykhE9CogiX0X-Ff6Mlb-5" value="" style="endArrow=classic;html=1;rounded=0;exitX=0.5;exitY=1;exitDx=0;exitDy=0;exitPerimeter=0;" edge="1" parent="1">
          <mxGeometry width="50" height="50" relative="1" as="geometry">
            <mxPoint x="104.5" y="230" as="sourcePoint" />
            <mxPoint x="104.5" y="320" as="targetPoint" />
          </mxGeometry>
        </mxCell>
        <mxCell id="0ykhE9CogiX0X-Ff6Mlb-6" value="" style="image;aspect=fixed;perimeter=ellipsePerimeter;html=1;align=center;shadow=0;dashed=0;spacingTop=3;image=img/lib/active_directory/domain_controller.svg;" vertex="1" parent="1">
          <mxGeometry x="84.5" y="320" width="63" height="90" as="geometry" />
        </mxCell>
        <mxCell id="0ykhE9CogiX0X-Ff6Mlb-7" value="" style="image;aspect=fixed;perimeter=ellipsePerimeter;html=1;align=center;shadow=0;dashed=0;fontColor=#4277BB;labelBackgroundColor=default;fontSize=12;spacingTop=3;image=img/lib/ibm/data/data_sources.svg;" vertex="1" parent="1">
          <mxGeometry x="62.5" y="115" width="85" height="85" as="geometry" />
        </mxCell>
        <mxCell id="0ykhE9CogiX0X-Ff6Mlb-8" value="&lt;font style=&quot;font-size: 14px;&quot;&gt;Data Sources&lt;/font&gt;" style="text;html=1;align=center;verticalAlign=middle;resizable=0;points=[];autosize=1;strokeColor=none;fillColor=none;" vertex="1" parent="1">
          <mxGeometry x="50" y="200" width="110" height="30" as="geometry" />
        </mxCell>
        <mxCell id="0ykhE9CogiX0X-Ff6Mlb-10" value="&lt;font style=&quot;font-size: 14px;&quot;&gt;Domain Filering &amp;amp; Preprocessing&lt;/font&gt;" style="text;html=1;align=center;verticalAlign=middle;resizable=0;points=[];autosize=1;strokeColor=none;fillColor=none;" vertex="1" parent="1">
          <mxGeometry x="20" y="410" width="230" height="30" as="geometry" />
        </mxCell>
        <mxCell id="0ykhE9CogiX0X-Ff6Mlb-11" value="&lt;p style=&quot;margin: 0px 0px 24px; font-variant-numeric: normal; font-variant-east-asian: normal; font-variant-alternates: normal; font-size-adjust: none; font-kerning: auto; font-optical-sizing: auto; font-feature-settings: normal; font-variation-settings: normal; font-variant-position: normal; font-variant-emoji: normal; font-stretch: normal; line-height: normal; font-family: Graphik; text-align: start;&quot; class=&quot;p1&quot;&gt;&lt;/p&gt;&lt;ul&gt;&lt;li&gt;&lt;p style=&quot;margin: 0px; font-variant-numeric: normal; font-variant-east-asian: normal; font-variant-alternates: normal; font-size-adjust: none; font-kerning: auto; font-optical-sizing: auto; font-feature-settings: normal; font-variation-settings: normal; font-variant-position: normal; font-variant-emoji: normal; font-stretch: normal; font-size: 13px; line-height: normal; font-family: &amp;quot;Helvetica Neue&amp;quot;; text-align: start;&quot; class=&quot;p1&quot;&gt;Keyword/Tag Filters (UMLS, MeSH)&lt;/p&gt;&lt;/li&gt;&lt;li&gt;&lt;p style=&quot;margin: 0px; font-variant-numeric: normal; font-variant-east-asian: normal; font-variant-alternates: normal; font-size-adjust: none; font-kerning: auto; font-optical-sizing: auto; font-feature-settings: normal; font-variation-settings: normal; font-variant-position: normal; font-variant-emoji: normal; font-stretch: normal; font-size: 13px; line-height: normal; font-family: &amp;quot;Helvetica Neue&amp;quot;; text-align: start;&quot; class=&quot;p1&quot;&gt;&lt;span style=&quot;background-color: transparent; color: light-dark(rgb(0, 0, 0), rgb(255, 255, 255));&quot;&gt;Length &amp;amp; Language Checks&amp;nbsp;&lt;/span&gt;&lt;/p&gt;&lt;/li&gt;&lt;li&gt;&lt;p style=&quot;margin: 0px; font-variant-numeric: normal; font-variant-east-asian: normal; font-variant-alternates: normal; font-size-adjust: none; font-kerning: auto; font-optical-sizing: auto; font-feature-settings: normal; font-variation-settings: normal; font-variant-position: normal; font-variant-emoji: normal; font-stretch: normal; font-size: 13px; line-height: normal; font-family: &amp;quot;Helvetica Neue&amp;quot;; text-align: start;&quot; class=&quot;p1&quot;&gt;&lt;span style=&quot;background-color: transparent; color: light-dark(rgb(0, 0, 0), rgb(255, 255, 255));&quot;&gt;Formatting &amp;amp; Clean-up&lt;br&gt;&lt;/span&gt;&lt;/p&gt;&lt;/li&gt;&lt;/ul&gt;&lt;p&gt;&lt;/p&gt;" style="shape=process;whiteSpace=wrap;html=1;backgroundOutline=1;" vertex="1" parent="1">
          <mxGeometry x="250" y="320" width="470" height="90" as="geometry" />
        </mxCell>
        <mxCell id="0ykhE9CogiX0X-Ff6Mlb-13" value="" style="endArrow=classic;html=1;rounded=0;entryX=0;entryY=0.5;entryDx=0;entryDy=0;exitX=1;exitY=0.5;exitDx=0;exitDy=0;" edge="1" parent="1" source="0ykhE9CogiX0X-Ff6Mlb-6">
          <mxGeometry width="50" height="50" relative="1" as="geometry">
            <mxPoint x="143.02700000000004" y="364.23" as="sourcePoint" />
            <mxPoint x="250" y="365.77" as="targetPoint" />
          </mxGeometry>
        </mxCell>
        <mxCell id="0ykhE9CogiX0X-Ff6Mlb-14" value="" style="endArrow=classic;html=1;rounded=0;exitX=0.5;exitY=1;exitDx=0;exitDy=0;exitPerimeter=0;" edge="1" parent="1">
          <mxGeometry width="50" height="50" relative="1" as="geometry">
            <mxPoint x="104.5" y="440" as="sourcePoint" />
            <mxPoint x="105" y="500" as="targetPoint" />
          </mxGeometry>
        </mxCell>
        <mxCell id="0ykhE9CogiX0X-Ff6Mlb-15" value="" style="points=[];aspect=fixed;html=1;align=center;shadow=0;dashed=0;fillColor=#FF6A00;strokeColor=none;shape=mxgraph.alibaba_cloud.nlp-pos_part-of-speech_tagging;" vertex="1" parent="1">
          <mxGeometry x="82" y="505" width="47.400000000000006" height="47.400000000000006" as="geometry" />
        </mxCell>
        <mxCell id="0ykhE9CogiX0X-Ff6Mlb-16" value="&lt;font style=&quot;font-size: 14px;&quot;&gt;Tokenizer &amp;amp; Input Preparation&lt;/font&gt;" style="text;html=1;align=center;verticalAlign=middle;resizable=0;points=[];autosize=1;strokeColor=none;fillColor=none;" vertex="1" parent="1">
          <mxGeometry x="20" y="558.7" width="210" height="30" as="geometry" />
        </mxCell>
        <mxCell id="0ykhE9CogiX0X-Ff6Mlb-19" value="" style="endArrow=classic;html=1;rounded=0;entryX=0;entryY=0.5;entryDx=0;entryDy=0;exitX=0.974;exitY=0.544;exitDx=0;exitDy=0;exitPerimeter=0;" edge="1" parent="1" source="0ykhE9CogiX0X-Ff6Mlb-15" target="0ykhE9CogiX0X-Ff6Mlb-21">
          <mxGeometry width="50" height="50" relative="1" as="geometry">
            <mxPoint x="130" y="533" as="sourcePoint" />
            <mxPoint x="310" y="533" as="targetPoint" />
          </mxGeometry>
        </mxCell>
        <mxCell id="0ykhE9CogiX0X-Ff6Mlb-21" value="SentencePiece (Prompted Input Format)" style="rounded=1;whiteSpace=wrap;html=1;" vertex="1" parent="1">
          <mxGeometry x="280" y="498.70000000000005" width="390" height="60" as="geometry" />
        </mxCell>
        <mxCell id="0ykhE9CogiX0X-Ff6Mlb-22" value="" style="endArrow=classic;html=1;rounded=0;exitX=0.5;exitY=1;exitDx=0;exitDy=0;exitPerimeter=0;" edge="1" parent="1">
          <mxGeometry width="50" height="50" relative="1" as="geometry">
            <mxPoint x="105.42" y="588.7" as="sourcePoint" />
            <mxPoint x="105.20449197860964" y="653.7" as="targetPoint" />
          </mxGeometry>
        </mxCell>
        <mxCell id="0ykhE9CogiX0X-Ff6Mlb-23" value="" style="image;sketch=0;aspect=fixed;html=1;points=[];align=center;fontSize=12;image=img/lib/mscae/Media_Encoding.svg;" vertex="1" parent="1">
          <mxGeometry x="80.38000000000001" y="663" width="49.02" height="57" as="geometry" />
        </mxCell>
        <mxCell id="0ykhE9CogiX0X-Ff6Mlb-24" value="&lt;font style=&quot;font-size: 14px;&quot;&gt;Encoder–Decoder Model&lt;/font&gt;" style="text;html=1;align=center;verticalAlign=middle;resizable=0;points=[];autosize=1;strokeColor=none;fillColor=none;" vertex="1" parent="1">
          <mxGeometry x="20" y="720" width="180" height="30" as="geometry" />
        </mxCell>
        <mxCell id="0ykhE9CogiX0X-Ff6Mlb-25" value="" style="endArrow=classic;html=1;rounded=0;entryX=0;entryY=0.5;entryDx=0;entryDy=0;" edge="1" parent="1" target="0ykhE9CogiX0X-Ff6Mlb-26">
          <mxGeometry width="50" height="50" relative="1" as="geometry">
            <mxPoint x="130" y="690" as="sourcePoint" />
            <mxPoint x="345" y="691.0049999999999" as="targetPoint" />
          </mxGeometry>
        </mxCell>
        <mxCell id="0ykhE9CogiX0X-Ff6Mlb-33" value="" style="edgeStyle=orthogonalEdgeStyle;rounded=0;orthogonalLoop=1;jettySize=auto;html=1;entryX=0.5;entryY=0;entryDx=0;entryDy=0;" edge="1" parent="1" target="0ykhE9CogiX0X-Ff6Mlb-32">
          <mxGeometry relative="1" as="geometry">
            <mxPoint x="510" y="723" as="sourcePoint" />
            <mxPoint x="500" y="801.5" as="targetPoint" />
          </mxGeometry>
        </mxCell>
        <mxCell id="0ykhE9CogiX0X-Ff6Mlb-26" value="&lt;p style=&quot;margin: 0px; font-variant-numeric: normal; font-variant-east-asian: normal; font-variant-alternates: normal; font-size-adjust: none; font-kerning: auto; font-optical-sizing: auto; font-feature-settings: normal; font-variation-settings: normal; font-variant-position: normal; font-variant-emoji: normal; font-stretch: normal; font-size: 13px; line-height: normal; font-family: &amp;quot;Helvetica Neue&amp;quot;; text-align: start;&quot; class=&quot;p1&quot;&gt;Base: mT5-small&lt;/p&gt;&lt;p style=&quot;margin: 0px; font-variant-numeric: normal; font-variant-east-asian: normal; font-variant-alternates: normal; font-size-adjust: none; font-kerning: auto; font-optical-sizing: auto; font-feature-settings: normal; font-variation-settings: normal; font-variant-position: normal; font-variant-emoji: normal; font-stretch: normal; font-size: 13px; line-height: normal; font-family: &amp;quot;Helvetica Neue&amp;quot;; text-align: start;&quot; class=&quot;p1&quot;&gt;Alternative: mBART, NLLB, MarianMT&lt;/p&gt;&lt;p style=&quot;margin: 0px; font-variant-numeric: normal; font-variant-east-asian: normal; font-variant-alternates: normal; font-size-adjust: none; font-kerning: auto; font-optical-sizing: auto; font-feature-settings: normal; font-variation-settings: normal; font-variant-position: normal; font-variant-emoji: normal; font-stretch: normal; font-size: 13px; line-height: normal; font-family: &amp;quot;Helvetica Neue&amp;quot;; text-align: start;&quot; class=&quot;p1&quot;&gt;Adaptation: LoRA / Adapters&lt;/p&gt;" style="whiteSpace=wrap;html=1;rounded=1;" vertex="1" parent="1">
          <mxGeometry x="330" y="660" width="345" height="60" as="geometry" />
        </mxCell>
        <mxCell id="0ykhE9CogiX0X-Ff6Mlb-28" value="" style="points=[];aspect=fixed;html=1;align=center;shadow=0;dashed=0;fillColor=#FF6A00;strokeColor=none;shape=mxgraph.alibaba_cloud.machine_learning;" vertex="1" parent="1">
          <mxGeometry x="79.60000000000001" y="820" width="49.8" height="50.099999999999994" as="geometry" />
        </mxCell>
        <mxCell id="0ykhE9CogiX0X-Ff6Mlb-29" value="" style="endArrow=classic;html=1;rounded=0;exitX=0.5;exitY=1;exitDx=0;exitDy=0;exitPerimeter=0;" edge="1" parent="1">
          <mxGeometry width="50" height="50" relative="1" as="geometry">
            <mxPoint x="100.2" y="750" as="sourcePoint" />
            <mxPoint x="100" y="815" as="targetPoint" />
          </mxGeometry>
        </mxCell>
        <mxCell id="0ykhE9CogiX0X-Ff6Mlb-30" value="&lt;font style=&quot;font-size: 14px;&quot;&gt;Fine-Tuning&lt;/font&gt;" style="text;html=1;align=center;verticalAlign=middle;resizable=0;points=[];autosize=1;strokeColor=none;fillColor=none;" vertex="1" parent="1">
          <mxGeometry x="50" y="870.1" width="100" height="30" as="geometry" />
        </mxCell>
        <mxCell id="0ykhE9CogiX0X-Ff6Mlb-31" value="" style="endArrow=classic;html=1;rounded=0;entryX=0;entryY=0.5;entryDx=0;entryDy=0;exitX=0.907;exitY=0.738;exitDx=0;exitDy=0;exitPerimeter=0;" edge="1" parent="1">
          <mxGeometry width="50" height="50" relative="1" as="geometry">
            <mxPoint x="129.4018" y="840.3211999999999" as="sourcePoint" />
            <mxPoint x="339.41" y="840.0049999999999" as="targetPoint" />
          </mxGeometry>
        </mxCell>
        <mxCell id="0ykhE9CogiX0X-Ff6Mlb-39" value="" style="edgeStyle=orthogonalEdgeStyle;rounded=0;orthogonalLoop=1;jettySize=auto;html=1;" edge="1" parent="1" source="0ykhE9CogiX0X-Ff6Mlb-32" target="0ykhE9CogiX0X-Ff6Mlb-38">
          <mxGeometry relative="1" as="geometry" />
        </mxCell>
        <mxCell id="0ykhE9CogiX0X-Ff6Mlb-32" value="&lt;blockquote style=&quot;margin: 0 0 0 40px; border: none; padding: 0px;&quot;&gt;&lt;blockquote style=&quot;margin: 0 0 0 40px; border: none; padding: 0px;&quot;&gt;&lt;p style=&quot;margin: 0px; font-variant-numeric: normal; font-variant-east-asian: normal; font-variant-alternates: normal; font-size-adjust: none; font-kerning: auto; font-optical-sizing: auto; font-feature-settings: normal; font-variation-settings: normal; font-variant-position: normal; font-variant-emoji: normal; font-stretch: normal; font-size: 13px; line-height: normal; font-family: &amp;quot;Helvetica Neue&amp;quot;;&quot; class=&quot;p1&quot;&gt;Learning Rate, Epochs&lt;/p&gt;&lt;/blockquote&gt;&lt;blockquote style=&quot;margin: 0 0 0 40px; border: none; padding: 0px;&quot;&gt;&lt;p style=&quot;margin: 0px; font-variant-numeric: normal; font-variant-east-asian: normal; font-variant-alternates: normal; font-size-adjust: none; font-kerning: auto; font-optical-sizing: auto; font-feature-settings: normal; font-variation-settings: normal; font-variant-position: normal; font-variant-emoji: normal; font-stretch: normal; font-size: 13px; line-height: normal; font-family: &amp;quot;Helvetica Neue&amp;quot;;&quot; class=&quot;p1&quot;&gt;Padding Masking (-100)&lt;/p&gt;&lt;/blockquote&gt;&lt;/blockquote&gt;" style="whiteSpace=wrap;html=1;rounded=1;align=left;" vertex="1" parent="1">
          <mxGeometry x="337.5" y="810.1" width="345" height="60" as="geometry" />
        </mxCell>
        <mxCell id="0ykhE9CogiX0X-Ff6Mlb-35" value="" style="sketch=0;outlineConnect=0;fontColor=#232F3E;gradientColor=none;fillColor=#01A88D;strokeColor=none;dashed=0;verticalLabelPosition=bottom;verticalAlign=top;align=center;html=1;fontSize=12;fontStyle=0;aspect=fixed;shape=mxgraph.aws4.application_discovery_service_migration_evaluator_collector;" vertex="1" parent="1">
          <mxGeometry x="74.5" y="944" width="60" height="60" as="geometry" />
        </mxCell>
        <mxCell id="0ykhE9CogiX0X-Ff6Mlb-36" value="" style="endArrow=classic;html=1;rounded=0;exitX=0.5;exitY=1;exitDx=0;exitDy=0;exitPerimeter=0;" edge="1" parent="1">
          <mxGeometry width="50" height="50" relative="1" as="geometry">
            <mxPoint x="99.7" y="894" as="sourcePoint" />
            <mxPoint x="100" y="944" as="targetPoint" />
          </mxGeometry>
        </mxCell>
        <mxCell id="0ykhE9CogiX0X-Ff6Mlb-37" value="" style="endArrow=classic;html=1;rounded=0;entryX=0;entryY=0.5;entryDx=0;entryDy=0;exitX=0.907;exitY=0.738;exitDx=0;exitDy=0;exitPerimeter=0;" edge="1" parent="1">
          <mxGeometry width="50" height="50" relative="1" as="geometry">
            <mxPoint x="129.4018" y="973.8211999999999" as="sourcePoint" />
            <mxPoint x="339.41" y="973.5049999999999" as="targetPoint" />
          </mxGeometry>
        </mxCell>
        <mxCell id="0ykhE9CogiX0X-Ff6Mlb-44" value="" style="edgeStyle=orthogonalEdgeStyle;rounded=0;orthogonalLoop=1;jettySize=auto;html=1;" edge="1" parent="1" source="0ykhE9CogiX0X-Ff6Mlb-38" target="0ykhE9CogiX0X-Ff6Mlb-43">
          <mxGeometry relative="1" as="geometry" />
        </mxCell>
        <mxCell id="0ykhE9CogiX0X-Ff6Mlb-38" value="&lt;blockquote style=&quot;margin: 0 0 0 40px; border: none; padding: 0px;&quot;&gt;&lt;blockquote style=&quot;margin: 0 0 0 40px; border: none; padding: 0px;&quot;&gt;&lt;p style=&quot;margin: 0px; font-variant-numeric: normal; font-variant-east-asian: normal; font-variant-alternates: normal; font-size-adjust: none; font-kerning: auto; font-optical-sizing: auto; font-feature-settings: normal; font-variation-settings: normal; font-variant-position: normal; font-variant-emoji: normal; font-stretch: normal; font-size: 13px; line-height: normal; font-family: &amp;quot;Helvetica Neue&amp;quot;;&quot; class=&quot;p1&quot;&gt;BLEU / chrF++ / Human Eval&lt;/p&gt;&lt;p style=&quot;margin: 0px; font-variant-numeric: normal; font-variant-east-asian: normal; font-variant-alternates: normal; font-size-adjust: none; font-kerning: auto; font-optical-sizing: auto; font-feature-settings: normal; font-variation-settings: normal; font-variant-position: normal; font-variant-emoji: normal; font-stretch: normal; font-size: 13px; line-height: normal; font-family: &amp;quot;Helvetica Neue&amp;quot;;&quot; class=&quot;p1&quot;&gt;Attention Visualization (Optional)&lt;/p&gt;&lt;/blockquote&gt;&lt;/blockquote&gt;" style="whiteSpace=wrap;html=1;rounded=1;align=left;" vertex="1" parent="1">
          <mxGeometry x="337.5" y="944" width="345" height="60" as="geometry" />
        </mxCell>
        <mxCell id="0ykhE9CogiX0X-Ff6Mlb-40" value="" style="image;html=1;image=img/lib/clip_art/finance/Graph_128x128.png" vertex="1" parent="1">
          <mxGeometry x="80" y="1060" width="60" height="70" as="geometry" />
        </mxCell>
        <mxCell id="0ykhE9CogiX0X-Ff6Mlb-41" value="&lt;font style=&quot;font-size: 14px;&quot;&gt;Evaluation&lt;/font&gt;" style="text;html=1;align=center;verticalAlign=middle;resizable=0;points=[];autosize=1;strokeColor=none;fillColor=none;" vertex="1" parent="1">
          <mxGeometry x="55" y="1004" width="90" height="30" as="geometry" />
        </mxCell>
        <mxCell id="0ykhE9CogiX0X-Ff6Mlb-42" value="&lt;font style=&quot;font-size: 14px;&quot;&gt;Results &amp;amp; Graphs&lt;/font&gt;" style="text;html=1;align=center;verticalAlign=middle;resizable=0;points=[];autosize=1;strokeColor=none;fillColor=none;" vertex="1" parent="1">
          <mxGeometry x="42.5" y="1130" width="130" height="30" as="geometry" />
        </mxCell>
        <mxCell id="0ykhE9CogiX0X-Ff6Mlb-43" value="&lt;blockquote style=&quot;margin: 0 0 0 40px; border: none; padding: 0px;&quot;&gt;&lt;blockquote style=&quot;margin: 0 0 0 40px; border: none; padding: 0px;&quot;&gt;&lt;p style=&quot;margin: 0px; font-variant-numeric: normal; font-variant-east-asian: normal; font-variant-alternates: normal; font-size-adjust: none; font-kerning: auto; font-optical-sizing: auto; font-feature-settings: normal; font-variation-settings: normal; font-variant-position: normal; font-variant-emoji: normal; font-stretch: normal; line-height: normal; font-family: &amp;quot;Helvetica Neue&amp;quot;;&quot; class=&quot;p1&quot;&gt;&lt;font style=&quot;font-size: 12px;&quot;&gt;&lt;font style=&quot;&quot;&gt;Training Loss Curve&lt;/font&gt;&lt;/font&gt;&lt;/p&gt;&lt;p style=&quot;margin: 0px; font-variant-numeric: normal; font-variant-east-asian: normal; font-variant-alternates: normal; font-size-adjust: none; font-kerning: auto; font-optical-sizing: auto; font-feature-settings: normal; font-variation-settings: normal; font-variant-position: normal; font-variant-emoji: normal; font-stretch: normal; line-height: normal; font-family: &amp;quot;Helvetica Neue&amp;quot;;&quot; class=&quot;p1&quot;&gt;&lt;font style=&quot;font-size: 12px;&quot;&gt;&lt;span style=&quot;background-color: transparent; color: light-dark(rgb(0, 0, 0), rgb(255, 255, 255));&quot;&gt;BLEU Score Over Epochs&lt;/span&gt;&lt;/font&gt;&lt;/p&gt;&lt;/blockquote&gt;&lt;/blockquote&gt;" style="whiteSpace=wrap;html=1;rounded=1;align=left;" vertex="1" parent="1">
          <mxGeometry x="337.5" y="1070" width="345" height="60" as="geometry" />
        </mxCell>
        <mxCell id="0ykhE9CogiX0X-Ff6Mlb-45" value="" style="endArrow=classic;html=1;rounded=0;entryX=0;entryY=0.5;entryDx=0;entryDy=0;" edge="1" parent="1">
          <mxGeometry width="50" height="50" relative="1" as="geometry">
            <mxPoint x="150" y="1100" as="sourcePoint" />
            <mxPoint x="339.41" y="1099.6149999999998" as="targetPoint" />
          </mxGeometry>
        </mxCell>
      </root>
    </mxGraphModel>
  </diagram>
</mxfile>
